<svg width="0" height="0" class="hidden">
  <symbol fill="none" xmlns="http://www.w3.org/2000/svg" viewBox="0 0 48 48" id="service-app">
    <circle cx="24" cy="24" r="23" stroke="#f72b1c" stroke-width="2"></circle>
    <path d="M24 31.5H24.0125H24ZM19 35.25H29C29.663 35.25 30.2989 34.9866 30.7678 34.5178C31.2366 34.0489 31.5 33.413 31.5 32.75V15.25C31.5 14.587 31.2366 13.9511 30.7678 13.4822C30.2989 13.0134 29.663 12.75 29 12.75H19C18.337 12.75 17.7011 13.0134 17.2322 13.4822C16.7634 13.9511 16.5 14.587 16.5 15.25V32.75C16.5 33.413 16.7634 34.0489 17.2322 34.5178C17.7011 34.9866 18.337 35.25 19 35.25Z" stroke="currentColor" stroke-width="2" stroke-linecap="round" stroke-linejoin="round"></path>
  </symbol>
  <symbol fill="none" xmlns="http://www.w3.org/2000/svg" viewBox="0 0 48 48" id="service-performance">
    <circle cx="24" cy="24" r="23" stroke="#f72b1c" stroke-width="2"></circle>
    <path d="M25.25 21.5V12.75L14 26.5H22.75V35.25L34 21.5H25.25Z" stroke="currentColor" stroke-width="2" stroke-linecap="round" stroke-linejoin="round"></path>
  </symbol>
  <symbol fill="none" xmlns="http://www.w3.org/2000/svg" viewBox="0 0 48 48" id="service-pwa">
    <circle cx="24" cy="24" r="23" stroke="#f72b1c" stroke-width="2"></circle>
    <path fill-rule="evenodd" clip-rule="evenodd" d="M13.5 34.5C13.5 34.1022 13.658 33.7206 13.9393 33.4393C14.2206 33.158 14.6022 33 15 33H33C33.3978 33 33.7794 33.158 34.0607 33.4393C34.342 33.7206 34.5 34.1022 34.5 34.5C34.5 34.8978 34.342 35.2794 34.0607 35.5607C33.7794 35.842 33.3978 36 33 36H15C14.6022 36 14.2206 35.842 13.9393 35.5607C13.658 35.2794 13.5 34.8978 13.5 34.5ZM18.4395 22.9395C18.7208 22.6583 19.1023 22.5003 19.5 22.5003C19.8977 22.5003 20.2792 22.6583 20.5605 22.9395L22.5 24.879V13.5C22.5 13.1022 22.658 12.7206 22.9393 12.4393C23.2206 12.158 23.6022 12 24 12C24.3978 12 24.7794 12.158 25.0607 12.4393C25.342 12.7206 25.5 13.1022 25.5 13.5V24.879L27.4395 22.9395C27.5779 22.7962 27.7434 22.682 27.9264 22.6033C28.1094 22.5247 28.3062 22.4834 28.5054 22.4816C28.7046 22.4799 28.9021 22.5178 29.0864 22.5933C29.2708 22.6687 29.4383 22.7801 29.5791 22.9209C29.7199 23.0617 29.8313 23.2292 29.9067 23.4136C29.9822 23.5979 30.0201 23.7954 30.0184 23.9946C30.0166 24.1938 29.9753 24.3906 29.8967 24.5736C29.818 24.7566 29.7038 24.9221 29.5605 25.0605L25.0605 29.5605C24.7792 29.8417 24.3977 29.9997 24 29.9997C23.6023 29.9997 23.2208 29.8417 22.9395 29.5605L18.4395 25.0605C18.1583 24.7792 18.0003 24.3977 18.0003 24C18.0003 23.6023 18.1583 23.2208 18.4395 22.9395V22.9395Z" fill="currentColor"></path>
  </symbol>
  <symbol fill="none" xmlns="http://www.w3.org/2000/svg" viewBox="0 0 48 48" id="service-uiux">
    <circle cx="24" cy="24" r="23" stroke="#f72b1c" stroke-width="2"></circle>
    <path d="M16.5 26.4999H14C13.3096 26.4999 12.75 27.0595 12.75 27.7499V30.2499C12.75 30.9402 13.3096 31.4999 14 31.4999H16.5C17.1904 31.4999 17.75 30.9402 17.75 30.2499V27.7499C17.75 27.0595 17.1904 26.4999 16.5 26.4999Z" stroke="currentColor" stroke-width="2" stroke-linecap="round" stroke-linejoin="round"></path>
    <path d="M33.9998 26.4999H31.4998C30.8094 26.4999 30.2498 27.0595 30.2498 27.7499V30.2499C30.2498 30.9402 30.8094 31.4999 31.4998 31.4999H33.9998C34.6901 31.4999 35.2498 30.9402 35.2498 30.2499V27.7499C35.2498 27.0595 34.6901 26.4999 33.9998 26.4999Z" stroke="currentColor" stroke-width="2" stroke-linecap="round" stroke-linejoin="round"></path>
    <path d="M25.2502 16.5H22.7502C22.0599 16.5 21.5002 17.0596 21.5002 17.75V20.25C21.5002 20.9404 22.0599 21.5 22.7502 21.5H25.2502C25.9406 21.5 26.5002 20.9404 26.5002 20.25V17.75C26.5002 17.0596 25.9406 16.5 25.2502 16.5Z" stroke="currentColor" stroke-width="2" stroke-linecap="round" stroke-linejoin="round"></path>
    <path d="M21.4998 19.6251C19.8369 19.902 18.3159 20.7309 17.1819 21.9782C16.048 23.2256 15.3673 24.8185 15.2498 26.5001" stroke="currentColor" stroke-width="2" stroke-linecap="round" stroke-linejoin="round"></path>
    <path d="M26.4998 19.6251C28.1626 19.902 29.6836 20.7309 30.8176 21.9782C31.9515 23.2256 32.6322 24.8185 32.7498 26.5001" stroke="currentColor" stroke-width="2" stroke-linecap="round" stroke-linejoin="round"></path>
    <path d="M21.5002 18.9999H14.0002" stroke="currentColor" stroke-width="2" stroke-linecap="round" stroke-linejoin="round"></path>
    <path d="M33.9998 18.9999H26.4998" stroke="currentColor" stroke-width="2" stroke-linecap="round" stroke-linejoin="round"></path>
    <path d="M12.7498 20.2501C13.4401 20.2501 13.9998 19.6905 13.9998 19.0001C13.9998 18.3098 13.4401 17.7501 12.7498 17.7501C12.0594 17.7501 11.4998 18.3098 11.4998 19.0001C11.4998 19.6905 12.0594 20.2501 12.7498 20.2501Z" stroke="currentColor" stroke-width="2" stroke-linecap="round" stroke-linejoin="round"></path>
    <path d="M35.2498 20.2501C35.9401 20.2501 36.4998 19.6905 36.4998 19.0001C36.4998 18.3098 35.9401 17.7501 35.2498 17.7501C34.5594 17.7501 33.9998 18.3098 33.9998 19.0001C33.9998 19.6905 34.5594 20.2501 35.2498 20.2501Z" stroke="currentColor" stroke-width="2" stroke-linecap="round" stroke-linejoin="round"></path>
  </symbol>
  <symbol fill="none" xmlns="http://www.w3.org/2000/svg" viewBox="0 0 48 48" id="service-webapps">
    <circle cx="24" cy="24" r="23" stroke="#f72b1c" stroke-width="2"></circle>
    <path d="M15.25 19C16.6307 19 17.75 17.8807 17.75 16.5C17.75 15.1193 16.6307 14 15.25 14C13.8693 14 12.75 15.1193 12.75 16.5C12.75 17.8807 13.8693 19 15.25 19Z" stroke="currentColor" stroke-width="2" stroke-linecap="round" stroke-linejoin="round"></path>
    <path d="M24 19C25.3807 19 26.5 17.8807 26.5 16.5C26.5 15.1193 25.3807 14 24 14C22.6193 14 21.5 15.1193 21.5 16.5C21.5 17.8807 22.6193 19 24 19Z" stroke="currentColor" stroke-width="2" stroke-linecap="round" stroke-linejoin="round"></path>
    <path d="M32.75 19C34.1307 19 35.25 17.8807 35.25 16.5C35.25 15.1193 34.1307 14 32.75 14C31.3693 14 30.25 15.1193 30.25 16.5C30.25 17.8807 31.3693 19 32.75 19Z" stroke="currentColor" stroke-width="2" stroke-linecap="round" stroke-linejoin="round"></path>
    <path d="M15.25 34C16.6307 34 17.75 32.8807 17.75 31.5C17.75 30.1193 16.6307 29 15.25 29C13.8693 29 12.75 30.1193 12.75 31.5C12.75 32.8807 13.8693 34 15.25 34Z" stroke="currentColor" stroke-width="2" stroke-linecap="round" stroke-linejoin="round"></path>
    <path d="M24 34C25.3807 34 26.5 32.8807 26.5 31.5C26.5 30.1193 25.3807 29 24 29C22.6193 29 21.5 30.1193 21.5 31.5C21.5 32.8807 22.6193 34 24 34Z" stroke="currentColor" stroke-width="2" stroke-linecap="round" stroke-linejoin="round"></path>
    <path d="M15.25 19V29" stroke="currentColor" stroke-width="2" stroke-linecap="round" stroke-linejoin="round"></path>
    <path d="M24 19V29" stroke="currentColor" stroke-width="2" stroke-linecap="round" stroke-linejoin="round"></path>
    <path d="M32.75 19V21.5C32.75 22.163 32.4866 22.7989 32.0178 23.2678C31.5489 23.7366 30.913 24 30.25 24H15.25" stroke="currentColor" stroke-width="2" stroke-linecap="round" stroke-linejoin="round"></path>
  </symbol>
  <symbol fill="none" xmlns="http://www.w3.org/2000/svg" viewBox="0 0 48 48" id="service-website">
    <circle cx="24" cy="24" r="23" stroke="#f72b1c" stroke-width="2"></circle>
    <path d="M17.75 18.9999L12.75 23.9999L17.75 28.9999" stroke="currentColor" stroke-width="2.5" stroke-linecap="round" stroke-linejoin="round"></path>
    <path d="M30.2498 18.9999L35.2498 23.9999L30.2498 28.9999" stroke="currentColor" stroke-width="2.5" stroke-linecap="round" stroke-linejoin="round"></path>
    <path d="M26.5002 14.0001L21.5002 34.0001" stroke="currentColor" stroke-width="2.5" stroke-linecap="round" stroke-linejoin="round"></path>
  </symbol>
  <symbol fill="none" xmlns="http://www.w3.org/2000/svg" viewBox="0 0 29 29" id="skill-bootstrap">
    <path d="M17.3306 14.7559C16.7891 14.5777 16.0096 14.616 14.9921 14.616H10.904V19.952H15.2758C15.9588 19.952 16.4386 19.8789 16.7149 19.8279C17.2019 19.7406 17.609 19.5718 17.9362 19.3681C18.263 19.1648 18.5319 18.8565 18.743 18.4677C18.9537 18.0788 19.0593 17.6239 19.0593 17.1151C19.0593 16.5193 18.9066 16.0618 18.6011 15.622C18.2958 15.1821 17.8724 14.9341 17.3306 14.7559V14.7559ZM16.7694 12.3162C17.307 12.1566 17.7123 11.8777 17.9849 11.5072C18.2577 11.1365 18.3939 10.6648 18.3939 10.105C18.3939 9.57464 18.2665 9.10414 18.012 8.70046C17.7575 8.29678 17.3944 8.14065 16.9218 7.99147C16.4493 7.84276 15.6389 7.888 14.4905 7.888H10.904V12.528H14.7522C15.6899 12.528 16.362 12.4398 16.7694 12.3162V12.3162ZM29 3.857C29 1.72678 27.2732 0 25.143 0H3.857C1.72678 0 0 1.72678 0 3.857V25.143C0 27.2732 1.72678 29 3.857 29H25.143C27.2732 29 29 27.2732 29 25.143V3.857ZM20.7763 19.1968C20.4603 19.8402 20.0694 20.3362 19.6042 20.6851C19.1388 21.034 18.5554 21.3301 17.854 21.5083C17.1529 21.6867 16.2931 21.808 15.2758 21.808H8.816V5.8H15.1774C16.3987 5.8 17.378 5.94129 18.1157 6.26446C18.8537 6.5881 19.4314 7.07577 19.8497 7.7481C20.2675 8.42044 20.4766 9.11853 20.4766 9.85258C20.4766 10.5358 20.291 11.1768 19.9204 11.78C19.5497 12.3837 18.9899 12.869 18.2415 13.2398C19.208 13.5233 19.9513 14.0063 20.471 14.6893C20.9907 15.3726 21.2505 16.1792 21.2505 17.1095C21.2505 17.8582 21.0925 18.5537 20.7763 19.1968V19.1968Z" fill="#5B4282"></path>
  </symbol>
  <symbol version="1.1" id="skill-cpp" xmlns="http://www.w3.org/2000/svg" xmlns:xlink="http://www.w3.org/1999/xlink" x="0px" y="0px" xml:space="preserve" viewBox="0 0 109.19 122.88">
    <g>
      <path fill="#00599C" d="M107.81,92.16c0.86-1.48,1.39-3.16,1.39-4.66V35.38c0-1.5-0.53-3.17-1.39-4.66L54.6,61.44L107.81,92.16 L107.81,92.16z"></path>
      <path fill="#004482" d="M59.33,121.75l45.14-26.06c1.3-0.75,2.48-2.05,3.34-3.53L54.6,61.44L1.39,92.16c0.86,1.48,2.04,2.78,3.34,3.53 l45.14,26.06C52.47,123.26,56.73,123.26,59.33,121.75L59.33,121.75z"></path>
      <path fill="#659AD2" d="M107.81,30.72c-0.86-1.48-2.04-2.78-3.34-3.53L59.33,1.13c-2.6-1.5-6.86-1.5-9.46,0L4.73,27.19 C2.13,28.69,0,32.37,0,35.38V87.5c0,1.5,0.53,3.17,1.39,4.66L54.6,61.44L107.81,30.72L107.81,30.72z"></path>
      <path fill="#FFFFFF" d="M54.6,97.84c-20.07,0-36.4-16.33-36.4-36.4c0-20.07,16.33-36.4,36.4-36.4c12.95,0,25.03,6.97,31.52,18.19 l-15.75,9.12c-3.25-5.62-9.29-9.1-15.77-9.1c-10.04,0-18.2,8.16-18.2,18.2c0,10.03,8.16,18.2,18.2,18.2 c6.48,0,12.52-3.49,15.77-9.1l15.75,9.12C79.63,90.87,67.55,97.84,54.6,97.84L54.6,97.84z"></path>
      <polygon fill="#FFFFFF" points="91,59.42 86.95,59.42 86.95,55.37 82.91,55.37 82.91,59.42 78.86,59.42 78.86,63.46 82.91,63.46 82.91,67.51 86.95,67.51 86.95,63.46 91,63.46 91,59.42"></polygon>
      <polygon fill="#FFFFFF" points="106.16,59.42 102.12,59.42 102.12,55.37 98.07,55.37 98.07,59.42 94.03,59.42 94.03,63.46 98.07,63.46 98.07,67.51 102.12,67.51 102.12,63.46 106.16,63.46 106.16,59.42"></polygon>
    </g>
  </symbol>
  <symbol fill="none" xmlns="http://www.w3.org/2000/svg" viewBox="0 0 29 29" id="skill-css3">
    <path d="M4.26223 25.856L1.98438 0.306274H27.015L24.7349 25.8521L14.4845 28.6939L4.26223 25.856V25.856Z" fill="#1572B6"></path>
    <path d="M14.4998 26.5219L22.7827 24.2255L24.7313 2.39526H14.4998V26.5219Z" fill="#33A9DC"></path>
    <path d="M14.4998 11.6518H18.6463L18.9327 8.44304H14.4998V5.30945H22.3574L22.2822 6.15022L21.5119 14.7854H14.4998V11.6518V11.6518Z" fill="white"></path>
    <path d="M14.5184 19.7901L14.5045 19.7941L11.0148 18.8519L10.7916 16.3527H7.64648L8.08534 21.2729L14.5041 23.0544L14.5184 23.0503V19.7901V19.7901Z" fill="#EBEBEB"></path>
    <path d="M18.38 14.653L18.0025 18.8493L14.5076 19.7928V23.053L20.9315 21.2727L20.9786 20.7432L21.5238 14.653H18.38Z" fill="white"></path>
    <path d="M14.5106 5.30945V8.44303H6.94162L6.87886 7.73888L6.73612 6.15022L6.66113 5.30945H14.5106V5.30945ZM14.5 11.6523V14.7859H11.0542L10.9914 14.0817L10.8485 12.4931L10.7737 11.6523H14.5V11.6523Z" fill="#EBEBEB"></path>
  </symbol>
  <symbol xmlns="http://www.w3.org/2000/svg" shape-rendering="geometricPrecision" text-rendering="geometricPrecision" image-rendering="optimizeQuality" fill-rule="evenodd" clip-rule="evenodd" viewBox="0 0 261418 333333" id="skill-django">
    <path d="M117587 0h54579v250154c-27956 5288-48537 7369-70805 7369C34700 257453 0 227673 0 170476c0-55108 36807-90874 93845-90874 8851 0 15594 697 23742 2783V0zm143831 86317v125248c0 43133-3231 63876-12714 81759-8851 17193-20511 28034-44604 40008l-50645-23866c24093-11197 35753-21091 43200-36189 7796-15440 10255-33324 10255-80361V86317h54509v-1zM201409 0h54579v55457h-54579V0zm-81909 127465c-6392-2087-11660-2783-18404-2783-27605 0-43550 16838-43550 46348 0 28731 15243 44595 43200 44595 6040 0 10957-340 18754-1384v-86776z" fill="#2ba977"></path>
  </symbol>
  <symbol fill="none" xmlns="http://www.w3.org/2000/svg" viewBox="0 0 29 29" id="skill-git">
    <path d="M28.2612 13.2269L15.774 0.740138C15.0553 0.0210283 13.889 0.0210283 13.1692 0.740138L10.5764 3.33337L13.8656 6.62261C14.6303 6.36455 15.5066 6.53765 16.1158 7.14687C16.7282 7.75995 16.9 8.64377 16.6356 9.41091L19.8056 12.5812C20.5725 12.3168 21.4577 12.4876 22.0699 13.1012C22.9263 13.9569 22.9263 15.3441 22.0699 16.2003C21.2135 17.0567 19.8267 17.0567 18.9698 16.2003C18.326 15.556 18.1667 14.6101 18.4929 13.8166L15.5367 10.8605L15.5363 18.6408C15.7452 18.7439 15.9421 18.8817 16.1161 19.055C16.972 19.9107 16.972 21.2975 16.1161 22.1551C15.2599 23.0108 13.8722 23.0108 13.0169 22.1551C12.161 21.2977 12.161 19.9109 13.0169 19.055C13.2285 18.8436 13.4732 18.6839 13.7344 18.5769V10.7245C13.4732 10.6176 13.229 10.459 13.0169 10.2462C12.3685 9.59828 12.2124 8.64672 12.545 7.85012L9.30219 4.60733L0.739941 13.1691C0.0206054 13.8889 0.0206054 15.0553 0.739941 15.7746L13.2274 28.2614C13.9465 28.9805 15.1124 28.9805 15.8326 28.2614L28.2614 15.8326C28.9805 15.113 28.9805 13.946 28.2612 13.2269V13.2269Z" fill="#F34F29"></path>
  </symbol>
  <symbol fill="none" xmlns="http://www.w3.org/2000/svg" viewBox="0 0 29 29" id="skill-github">
    <path stroke="currentColor" fill="currentColor" fill-rule="evenodd" clip-rule="evenodd" d="M14.5 1.15613C6.94484 1.15613 0.818359 7.28124 0.818359 14.8378C0.818359 20.8829 4.73857 26.0112 10.1747 27.8205C10.8582 27.9474 11.1093 27.5237 11.1093 27.1623C11.1093 26.8361 11.0966 25.7583 11.0907 24.6151C7.28445 25.4427 6.48129 23.0008 6.48129 23.0008C5.85892 21.4194 4.96219 20.9989 4.96219 20.9989C3.72063 20.1498 5.05576 20.1674 5.05576 20.1674C6.42941 20.2637 7.15305 21.5773 7.15305 21.5773C8.37331 23.6685 10.3537 23.064 11.1344 22.7147C11.2572 21.8304 11.6118 21.2266 12.0031 20.885C8.96419 20.5395 5.76943 19.3661 5.76943 14.1237C5.76943 12.6299 6.30412 11.4094 7.17933 10.4511C7.03705 10.1067 6.56874 8.71516 7.31164 6.83061C7.31164 6.83061 8.46031 6.4629 11.0748 8.23303C12.1664 7.92967 13.3371 7.77719 14.5 7.77198C15.6623 7.77719 16.8336 7.92921 17.9272 8.23258C20.5386 6.46245 21.6859 6.83016 21.6859 6.83016C22.4306 8.71448 21.9623 10.1063 21.8202 10.4506C22.6975 11.409 23.2283 12.6295 23.2283 14.1232C23.2283 19.3781 20.0277 20.5349 16.9811 20.8739C17.4721 21.2984 17.9093 22.1313 17.9093 23.4075C17.9093 25.2381 17.8935 26.7115 17.8935 27.1621C17.8935 27.5262 18.14 27.9528 18.8332 27.8185C24.2662 26.0073 28.1819 20.8807 28.1819 14.8378C28.1817 7.2817 22.0559 1.15635 14.5 1.15635V1.15613Z"></path>
    <path d="M6.00069 20.7998C5.97056 20.8678 5.86362 20.8882 5.7662 20.8418C5.66651 20.7973 5.611 20.7047 5.64318 20.6365C5.67263 20.5663 5.77979 20.547 5.8788 20.5939C5.97849 20.6385 6.03513 20.7321 6.00046 20.8001L6.00069 20.7998ZM6.55486 21.4181C6.48984 21.4786 6.36228 21.4505 6.27574 21.3547C6.18602 21.2595 6.16925 21.132 6.23564 21.0706C6.30315 21.0103 6.42686 21.0389 6.51657 21.134C6.60584 21.2305 6.62351 21.357 6.55509 21.4184L6.55486 21.4181ZM7.09453 22.2059C7.01071 22.2643 6.87341 22.2097 6.78868 22.0881C6.70485 21.9662 6.70485 21.8201 6.79094 21.7618C6.87545 21.7034 7.01071 21.7562 7.0968 21.8767C7.18018 22.0002 7.18018 22.1463 7.09453 22.2057V22.2059ZM7.83336 22.9674C7.75859 23.0501 7.59864 23.0279 7.48173 22.9153C7.36233 22.8049 7.32903 22.6479 7.40402 22.5654C7.48014 22.4825 7.64078 22.5056 7.75836 22.6176C7.87776 22.7277 7.91379 22.8849 7.83381 22.9671L7.83336 22.9674ZM8.85289 23.4094C8.81958 23.5166 8.66597 23.5653 8.51078 23.5195C8.35603 23.4726 8.25476 23.3473 8.28648 23.239C8.3182 23.1309 8.47294 23.0804 8.62904 23.1291C8.78378 23.1758 8.88506 23.3004 8.85289 23.4094ZM9.97278 23.4912C9.97664 23.604 9.84523 23.6973 9.68278 23.6996C9.51898 23.7035 9.38644 23.6119 9.38486 23.5009C9.38486 23.387 9.51354 23.2947 9.67712 23.2916C9.83957 23.2886 9.97301 23.3793 9.97301 23.4909L9.97278 23.4912ZM11.0145 23.314C11.034 23.4239 10.9209 23.5369 10.7594 23.5671C10.6008 23.5965 10.4536 23.5281 10.4332 23.4191C10.4137 23.3063 10.5288 23.1932 10.6874 23.164C10.8491 23.1362 10.9941 23.2025 11.0145 23.3142V23.314Z" fill="#181818"></path>
  </symbol>
  <symbol fill="none" xmlns="http://www.w3.org/2000/svg" viewBox="0 0 29 29" id="skill-html5">
    <path d="M4.31314 25.8001L2.04639 0.376343H26.9538L24.6845 25.7962L14.4849 28.6237L4.31314 25.8001Z" fill="#E44D26"></path>
    <path d="M14.5 26.4625L22.7419 24.1774L24.681 2.45508H14.5V26.4625Z" fill="#F16529"></path>
    <path d="M14.4998 11.8844H10.3736L10.0886 8.6912H14.4998V5.57324H6.68091L6.75567 6.40971L7.52191 15.0025H14.4998V11.8844ZM14.4998 19.9824L14.486 19.9862L11.0135 19.0483L10.7917 16.5618H7.66124L8.09806 21.4575L14.4855 23.2306L14.4998 23.2268V19.9824Z" fill="#EBEBEB"></path>
    <path d="M14.489 11.8844V15.0025H18.3286L17.9667 19.0465L14.489 19.9851V23.2292L20.8815 21.4575L20.9284 20.9308L21.6611 12.7217L21.737 11.8844H20.8969H14.489ZM14.489 5.57324V8.69119H22.0209L22.0834 7.99066L22.2257 6.40971L22.3002 5.57324H14.489Z" fill="white"></path>
  </symbol>
  <symbol fill="none" xmlns="http://www.w3.org/2000/svg" viewBox="0 0 29 29" id="skill-javascript">
    <path d="M0.320801 0.320801H28.6828V28.683H0.320801V0.320801Z" fill="#F0DB4F"></path>
    <path fill="#323330" d="M26.36 21.9167C26.1522 20.6228 25.3085 19.536 22.8093 18.5226C21.9411 18.1236 20.9732 17.8379 20.6848 17.18C20.5824 16.7971 20.5688 16.5814 20.6336 16.3496C20.8196 15.5974 21.7175 15.363 22.4291 15.5786C22.8874 15.7323 23.3213 16.0855 23.583 16.6489C24.8069 15.8564 24.8044 15.8616 25.659 15.317C25.3461 14.8319 25.1791 14.608 24.9743 14.4005C24.2382 13.5783 23.2352 13.1549 21.6311 13.1873L20.7956 13.2953C19.9949 13.4977 19.2318 13.9179 18.7844 14.4814C17.4418 16.0048 17.8247 18.671 19.4584 19.7682C21.0679 20.9763 23.4323 21.2511 23.7343 22.3807C24.0282 23.7637 22.718 24.2114 21.4157 24.0523C20.456 23.8527 19.9222 23.3649 19.3451 22.4779C18.283 23.0926 18.283 23.0926 17.191 23.7206C17.4499 24.2868 17.722 24.543 18.1561 25.0335C20.2106 27.1175 25.3517 27.0151 26.2739 23.8609C26.3112 23.7526 26.5596 23.0303 26.36 21.9167V21.9167ZM15.7376 13.3543H13.0847L13.0739 20.2128C13.0739 21.6714 13.1493 23.0085 12.9121 23.4184C12.524 24.2245 11.5183 24.1246 11.06 23.9683C10.5935 23.739 10.3563 23.4129 10.0814 22.9521C10.006 22.8198 9.94934 22.7174 9.93031 22.7095L7.77344 24.0303C8.13209 24.7664 8.66043 25.4053 9.33717 25.8204C10.3481 26.4271 11.7068 26.6131 13.1278 26.2869C14.0526 26.0175 14.8506 25.4595 15.2684 24.6101C15.8724 23.4966 15.7428 22.1487 15.7373 20.6579C15.7509 18.2258 15.7376 15.7941 15.7376 13.3543Z"></path>
  </symbol>
  <symbol version="1.1" id="skill-jquery" xmlns="http://www.w3.org/2000/svg" xmlns:xlink="http://www.w3.org/1999/xlink" x="0px" y="0px" xml:space="preserve" viewBox="0 0 122.88 121.74">
    <g fill="#21609B">
      <path d="M120.03,90.36l-0.55,1.43c-9.37,18.25-25.98,29.45-49.67,29.94c-11.07,0.23-21.63-2.61-28.52-5.7 C26.41,109.35,13.9,96.95,7.07,83.71c-9.8-18.98-11.57-45.39,8.81-65.11c0.31,0-2.47,4.28-2.16,4.28l-0.56,1.83 c-14.69,45.98,30.56,85.38,74.54,80.88C98.28,104.49,111.76,98.7,120.03,90.36L120.03,90.36L120.03,90.36z M120.03,90.36 L120.03,90.36L120.03,90.36L120.03,90.36z"></path>
      <path d="M93.41,71.35c11.07,0.08,22.62-5.1,29.47-12.36c-5.99,15.2-23.33,24.97-46.58,21.86 c-19.47-2.61-38.01-22.2-39.92-41.83c-1.4-14.29,3.58-22.81,11.79-33.16c-2.85,5.41-3.92,9.58-4.18,12.24 C40.86,49.02,68.67,71.19,93.41,71.35L93.41,71.35L93.41,71.35z M93.41,71.35L93.41,71.35L93.41,71.35L93.41,71.35z"></path>
      <path d="M121.77,32.97c-1.72,3.95-11.62,11.4-16,12.33c-17.32,3.69-28.41-4.52-34.22-13.87 c-0.86-1.4-2.46-5.21-2.75-6.18C66.55,17.59,67.58,6,74.3,0c-2.02,5.7-2.32,12.33-1.25,16.64c0.65,2.6,2.61,7.15,4.58,10.01 c3.58,5.21,5.85,6.47,10.46,9.24c2.07,1.24,4.3,2.24,5.26,2.52C97.71,39.69,106.92,43.07,121.77,32.97L121.77,32.97L121.77,32.97z M121.77,32.97L121.77,32.97L121.77,32.97L121.77,32.97z"></path>
    </g>
  </symbol>
  <symbol fill="none" xmlns="http://www.w3.org/2000/svg" viewBox="0 0 29 29" id="skill-nextjs">
    <path d="M14.5 0C6.50234 0 0 6.50234 0 14.5C0 22.4977 6.50234 29 14.5 29C22.4977 29 29 22.4977 29 14.5C29 6.50234 22.4977 0 14.5 0ZM21.9086 25.9188L10.9656 9.47031H9.425V20.8211H10.9656V12.5289L20.9797 26.4625C19.0539 27.5047 16.8562 28.0938 14.5 28.0938C6.97812 28.1164 0.883594 22.0219 0.883594 14.5C0.883594 6.97812 6.97812 0.883594 14.5 0.883594C22.0219 0.883594 28.1164 6.97812 28.1164 14.5C28.1164 19.2805 25.6469 23.4945 21.9086 25.9188V25.9188Z" fill="currentColor"></path>
    <path d="M17.8079 16.6071L19.5071 19.1672V9.47034H17.8079V16.6071Z" fill="currentColor"></path>
  </symbol>
  <symbol fill="none" xmlns="http://www.w3.org/2000/svg" viewBox="0 0 29 29" id="skill-pwa">
    <path d="M21.3438 18.2647L22.1815 16.1462H24.6003L23.4522 12.9327L24.8879 9.30225L28.9999 20.2201H25.9675L25.2648 18.2647H21.3438Z" fill="currentColor"></path>
    <path d="M18.7547 19.6178L23.1566 8.69995L20.2384 8.70018L17.2271 15.7555L15.0856 8.70018H12.8426L10.5435 15.7555L8.92198 12.5404L7.45459 17.0611L8.94453 19.6178H11.8165L13.8943 13.2907L15.875 19.6178H18.7547Z" fill="currentColor"></path>
    <path d="M2.77015 15.8767H4.5677C5.11225 15.8767 5.59704 15.816 6.0223 15.6944L6.4871 14.2623L7.78637 10.2594C7.68756 10.1027 7.57455 9.95411 7.44737 9.81437C6.78029 9.07591 5.80421 8.70691 4.51934 8.70691H0V19.6248H2.77015V15.8767ZM5.14945 11.2185C5.4101 11.4808 5.54031 11.8319 5.54031 12.2713C5.54031 12.7145 5.42568 13.0658 5.19665 13.3255C4.9453 13.6141 4.48284 13.7585 3.80902 13.7585H2.77015V10.8253H3.81669C4.44471 10.8253 4.88904 10.9562 5.14945 11.2185Z" fill="currentColor"></path>
  </symbol>
  <symbol xmlns="http://www.w3.org/2000/svg" preserveAspectRatio="xMinYMin meet" viewBox="0 0 256 255" id="skill-python">
    <path fill="#387EB8" d="M126.916.072c-64.832 0-60.784 28.115-60.784 28.115l.072 29.128h61.868v8.745H41.631S.145 61.355.145 126.77c0 65.417 36.21 63.097 36.21 63.097h21.61v-30.356s-1.165-36.21 35.632-36.21h61.362s34.475.557 34.475-33.319V33.97S194.67.072 126.916.072zM92.802 19.66a11.12 11.12 0 0 1 11.13 11.13 11.12 11.12 0 0 1-11.13 11.13 11.12 11.12 0 0 1-11.13-11.13 11.12 11.12 0 0 1 11.13-11.13z"></path>
    <path fill="#FFC331" d="M128.757 254.126c64.832 0 60.784-28.115 60.784-28.115l-.072-29.127H127.6v-8.745h86.441s41.486 4.705 41.486-60.712c0-65.416-36.21-63.096-36.21-63.096h-21.61v30.355s1.165 36.21-35.632 36.21h-61.362s-34.475-.557-34.475 33.32v56.013s-5.235 33.897 62.518 33.897zm34.114-19.586a11.12 11.12 0 0 1-11.13-11.13 11.12 11.12 0 0 1 11.13-11.131 11.12 11.12 0 0 1 11.13 11.13 11.12 11.12 0 0 1-11.13 11.13z"></path>
  </symbol>
  <symbol fill="none" xmlns="http://www.w3.org/2000/svg" viewBox="0 0 29 29" id="skill-reactjs">
    <path d="M14.4998 17.0829C15.9263 17.0829 17.0826 15.9265 17.0826 14.5001C17.0826 13.0736 15.9263 11.9172 14.4998 11.9172C13.0734 11.9172 11.917 13.0736 11.917 14.5001C11.917 15.9265 13.0734 17.0829 14.4998 17.0829Z" fill="#61DAFB"></path>
    <path d="M24.3101 10.2407C23.8117 10.0594 23.2906 9.87818 22.7468 9.71958C22.8828 9.17583 22.996 8.63208 23.0867 8.11099C23.5625 5.12036 23.0414 3.01333 21.5914 2.1977C21.1609 1.94849 20.6851 1.83521 20.1414 1.83521C18.5554 1.83521 16.539 3.01333 14.5 4.98442C12.4609 3.01333 10.4445 1.83521 8.85855 1.83521C8.3148 1.83521 7.83902 1.94849 7.40855 2.1977C5.95855 3.03599 5.43745 5.14302 5.91323 8.11099C6.00386 8.63208 6.11714 9.17583 6.25308 9.71958C5.70933 9.87818 5.18823 10.0368 4.6898 10.2407C1.85776 11.3282 0.317139 12.8235 0.317139 14.5001C0.317139 16.1766 1.88042 17.6719 4.6898 18.7594C5.18823 18.9407 5.70933 19.1219 6.25308 19.2805C6.11714 19.8243 6.00386 20.368 5.91323 20.8891C5.43745 23.8797 5.95855 25.9868 7.40855 26.8024C7.83902 27.0516 8.3148 27.1649 8.85855 27.1649C10.4671 27.1649 12.4835 25.9868 14.5 24.0157C16.539 25.9868 18.5554 27.1649 20.1414 27.1649C20.6851 27.1649 21.1609 27.0516 21.5914 26.8024C23.0414 25.9641 23.5625 23.8571 23.0867 20.8891C22.996 20.368 22.8828 19.8243 22.7468 19.2805C23.2906 19.1219 23.8117 18.9633 24.3101 18.7594C27.1421 17.6719 28.6828 16.1766 28.6828 14.5001C28.6828 12.8235 27.1421 11.3282 24.3101 10.2407ZM20.957 3.33052C21.8859 3.87427 22.2031 5.55083 21.8179 7.92974C21.75 8.40552 21.6367 8.90396 21.5007 9.42505C20.3226 9.15317 19.0765 8.97192 17.7625 8.85864C16.9921 7.77114 16.1992 6.79692 15.4062 5.91333C17.0828 4.25942 18.782 3.12661 20.164 3.12661C20.4585 3.12661 20.7304 3.19458 20.957 3.33052V3.33052ZM18.4195 16.7657C18.0117 17.4907 17.5359 18.2157 17.0375 18.9407C16.1992 19.0086 15.3609 19.0313 14.5 19.0313C13.6164 19.0313 12.7781 19.0086 11.9625 18.9407C11.464 18.2157 11.0109 17.4907 10.6031 16.7657C10.1726 16.018 9.7648 15.2477 9.4023 14.5001C9.7648 13.7524 10.1726 12.9821 10.6031 12.2344C11.0109 11.5094 11.4867 10.7844 11.9851 10.0594C12.8234 9.99146 13.6617 9.9688 14.5226 9.9688C15.4062 9.9688 16.2445 9.99146 17.0601 10.0594C17.5585 10.7844 18.0117 11.5094 18.4195 12.2344C18.85 12.9821 19.2578 13.7524 19.6203 14.5001C19.2351 15.2477 18.85 15.9954 18.4195 16.7657ZM20.3 16.018C20.6398 16.811 20.9117 17.5813 21.1609 18.3516C20.3906 18.5329 19.575 18.6688 18.714 18.7821C18.9859 18.3516 19.2804 17.8985 19.5296 17.4227C19.8015 16.9469 20.0507 16.4711 20.3 16.018ZM14.5 22.1579C13.9562 21.5688 13.4351 20.9344 12.9367 20.2774C13.4578 20.3001 13.9789 20.3227 14.5 20.3227C15.021 20.3227 15.5421 20.3001 16.0632 20.2774C15.5648 20.9344 15.0437 21.5688 14.5 22.1579ZM10.2859 18.7594C9.42495 18.6461 8.60933 18.5102 7.83901 18.329C8.08823 17.5813 8.36011 16.7883 8.69995 15.9954C8.94917 16.4485 9.19839 16.9243 9.47026 17.3774C9.74214 17.8758 10.014 18.3063 10.2859 18.7594V18.7594ZM8.69995 12.9821C8.36011 12.1891 8.08823 11.4188 7.83901 10.6485C8.60933 10.4672 9.42495 10.3313 10.2859 10.218C10.014 10.6485 9.71948 11.1016 9.47026 11.5774C9.19839 12.0532 8.94917 12.529 8.69995 12.9821V12.9821ZM14.5 6.84224C15.0437 7.4313 15.5648 8.06567 16.0632 8.72271C15.5421 8.70005 15.021 8.67739 14.5 8.67739C13.9789 8.67739 13.4578 8.70005 12.9367 8.72271C13.4351 8.06567 13.9562 7.4313 14.5 6.84224V6.84224ZM19.5296 11.6L18.714 10.2407C19.575 10.354 20.3906 10.4899 21.1609 10.6711C20.9117 11.4188 20.6398 12.2118 20.3 13.0047C20.0507 12.529 19.8015 12.0532 19.5296 11.6V11.6ZM7.18198 7.92974C6.79683 5.55083 7.11401 3.87427 8.04292 3.33052C8.26948 3.19458 8.54136 3.12661 8.83589 3.12661C10.1953 3.12661 11.8945 4.23677 13.5937 5.91333C12.8007 6.77427 12.0078 7.77114 11.2375 8.85864C9.92339 8.97192 8.6773 9.17583 7.49917 9.42505C7.36323 8.90396 7.27261 8.40552 7.18198 7.92974ZM1.58589 14.5001C1.58589 13.4352 2.8773 12.3024 5.14292 11.4641C5.59605 11.2829 6.09448 11.1243 6.59292 10.9883C6.95542 12.1211 7.40855 13.3219 7.9523 14.5227C7.40855 15.7235 6.93277 16.9016 6.59292 18.0344C3.46636 17.1282 1.58589 15.7688 1.58589 14.5001V14.5001ZM8.04292 25.6696C7.11401 25.1258 6.79683 23.4493 7.18198 21.0704C7.24995 20.5946 7.36323 20.0961 7.49917 19.5751C8.6773 19.8469 9.92339 20.0282 11.2375 20.1415C12.0078 21.229 12.8007 22.2032 13.5937 23.0868C11.9171 24.7407 10.2179 25.8735 8.83589 25.8735C8.54136 25.8735 8.26948 25.8055 8.04292 25.6696ZM21.8179 21.0704C22.2031 23.4493 21.8859 25.1258 20.957 25.6696C20.7304 25.8055 20.4585 25.8735 20.164 25.8735C18.8046 25.8735 17.1054 24.7633 15.4062 23.0868C16.1992 22.2258 16.9921 21.229 17.7625 20.1415C19.0765 20.0282 20.3226 19.8243 21.5007 19.5751C21.6367 20.0961 21.7273 20.5946 21.8179 21.0704V21.0704ZM23.857 17.536C23.4039 17.7172 22.9054 17.8758 22.407 18.0118C22.0445 16.879 21.5914 15.6782 21.0476 14.4774C21.5914 13.2766 22.0671 12.0985 22.407 10.9657C25.5335 11.8719 27.414 13.2313 27.414 14.5001C27.414 15.5649 26.1 16.6977 23.857 17.536V17.536Z" fill="#61DAFB"></path>
  </symbol>
  <symbol xmlns="http://www.w3.org/2000/svg" shape-rendering="geometricPrecision" text-rendering="geometricPrecision" image-rendering="optimizeQuality" fill-rule="evenodd" clip-rule="evenodd" viewBox="0 0 333333 316450" id="skill-redux">
    <path d="M230965 221006c12301-1273 21633-11878 21209-24604-423-12725-11029-22906-23754-22906h-848c-13151 424-23331 11453-22906 24603 424 6363 2969 11878 6786 15695-14422 28422-36479 49207-69565 66599-22482 11878-45811 16120-69141 13151-19089-2546-33935-11029-43269-25029-13573-20785-14845-43268-3392-65750 8060-16120 20784-27997 28844-33936-1696-5515-4242-14846-5514-21633-61507 44541-55143 104776-36480 133197 13998 21211 42418 34361 73807 34361 8483 0 16966-849 25450-2969 54296-10606 95442-42845 118771-90779zm74656-52600c-32238-37754-79746-58539-134042-58539h-6786c-3818-7635-11878-12727-20785-12727h-849c-13148 424-23328 11453-22905 24604 424 12725 11028 22906 23754 22906h848c9332-425 17392-6363 20785-14423h7635c32238 0 62779 9332 90352 27573 21208 13999 36479 32239 44962 54297 7211 17817 6787 35208-849 50056-11876 22482-31813 34784-58112 34784-16967 0-33086-5091-41570-8909-4665 4242-13150 11028-19088 15272 18241 8483 36905 13150 54720 13150 40722 0 70839-22483 82292-44965 12301-24604 11452-67023-20361-103079zM90137 228216c424 12726 11029 22906 23754 22906h849c13150-423 23330-11453 22905-24603-423-12726-11029-22906-23754-22906h-848c-849 0-2122 0-2969 423-17392-28845-24603-60234-22057-94170 1695-25452 10180-47510 25026-65751 12301-15695 36055-23331 52174-23754 44962-849 64050 55144 65323 77628 5515 1272 14846 4242 21210 6363C246659 35633 204241 0 163521 0c-38177 0-73384 27573-87383 68296-19512 54297-6786 106472 16968 147620-2120 2969-3393 7635-2969 12302v-1z" fill="#764abc"></path>
  </symbol>
  <symbol fill="none" xmlns="http://www.w3.org/2000/svg" viewBox="0 0 29 29" id="skill-tailwindcss">
    <path fill-rule="evenodd" clip-rule="evenodd" d="M14.5 6C10.6333 6 8.21667 7.88889 7.25 11.6667C8.7 9.77778 10.3917 9.06944 12.325 9.54167C13.4281 9.81083 14.2164 10.5931 15.0891 11.4584C16.5107 12.8682 18.1561 14.5 21.75 14.5C25.6167 14.5 28.0333 12.6111 29 8.83333C27.55 10.7222 25.8583 11.4306 23.925 10.9583C22.8219 10.6892 22.0336 9.90685 21.1609 9.04164C19.7393 7.63179 18.0939 6 14.5 6ZM7.25 14.5C3.38333 14.5 0.966667 16.3889 0 20.1667C1.45 18.2778 3.14167 17.5694 5.075 18.0417C6.17807 18.3114 6.96644 19.0931 7.83913 19.9584C9.26067 21.3682 10.9061 23 14.5 23C18.3667 23 20.7833 21.1111 21.75 17.3333C20.3 19.2222 18.6083 19.9306 16.675 19.4583C15.5719 19.1892 14.7836 18.4069 13.9109 17.5416C12.4893 16.1318 10.8439 14.5 7.25 14.5Z" fill="#06B6D4"></path>
  </symbol>
  <symbol fill="none" xmlns="http://www.w3.org/2000/svg" viewBox="0 0 24 24" id="icon-search" stroke="currentColor">
    <path stroke-linecap="round" stroke-linejoin="round" stroke-width="1.5" d="M21 21l-6-6m2-5a7 7 0 11-14 0 7 7 0 0114 0z" />
  </symbol>
  <symbol fill="none" xmlns="http://www.w3.org/2000/svg"  stroke-width="2" viewBox="0 0 24 24" stroke-linecap="round" stroke-linejoin="round" id="icon-sun" stroke="currentColor">
    <circle cx="12" cy="12" r="5"></circle>
    <line x1="12" y1="1" x2="12" y2="3"></line>
    <line x1="12" y1="21" x2="12" y2="23"></line>
    <line x1="4.22" y1="4.22" x2="5.64" y2="5.64"></line>
    <line x1="18.36" y1="18.36" x2="19.78" y2="19.78"></line>
    <line x1="1" y1="12" x2="3" y2="12"></line>
    <line x1="21" y1="12" x2="23" y2="12"></line>
    <line x1="4.22" y1="19.78" x2="5.64" y2="18.36"></line>
    <line x1="18.36" y1="5.64" x2="19.78" y2="4.22"></line>
  </symbol>
  <symbol stroke-linecap="round" stroke-linejoin="round" stroke-width="2" fill="none" xmlns="http://www.w3.org/2000/svg" viewBox="0 0 24 24" id="icon-moon" stroke="currentColor">
    <path d="M21 12.79A9 9 0 1 1 11.21 3 7 7 0 0 0 21 12.79z"></path>
  </symbol>
  <symbol version="1.1" xmlns="http://www.w3.org/2000/svg" xmlns:xlink="http://www.w3.org/1999/xlink" viewBox="0 0 24 24" id="icon-spinner">
    <g id="" stroke="none" stroke-width="1" fill="none" fill-rule="evenodd">
      <g id="icon" transform="translate(3, 3)" stroke="currentColor" stroke-linecap="square" stroke-width="2">
        <path d="M9,0.1125 L9,3.49499169 M15.2844115,2.71558848 L12.8926287,5.10737129 M17.8875,9 L14.5050083,9 M15.2844115,15.2844115 L12.8926287,12.8926287 M9,17.8875 L9,14.5050083 M2.71558848,15.2844115 L5.10737129,12.8926287 M0.1125,9 L3.49499169,9 M2.71558848,2.71558848 L5.10737129,5.10737129" id="loader"></path>
      </g>
    </g>
  </symbol>
  <symbol fill="none" xmlns="http://www.w3.org/2000/svg" viewBox="0 0 29 29" id="skill-vuejs">
   <polygon fill="#81c784" points="23,17 18.5,8 2,8 23,44 45,8 29.5,8" />
   <polygon fill="#455a64" points="29.5,8 23,17 18.5,8 11,8 23,30 36,8" />
  </symbol>
  <symbol fill="none" xmlns="http://www.w3.org/2000/svg" viewBox="0 0 29 29" id="skill-nodejs">
    <path fill="#21a366" d="M4.007,19.419c-0.574,0-1.143-0.15-1.646-0.44l-3.24-1.103c-0.783-0.438-0.401-0.593-0.143-0.682	c1.044-0.365,1.255-0.448,2.369-1.081c0.117-0.067,0.27-0.043,0.39,0.028l2.026,1.389c0.145,0.079,0.352,0.079,0.486,0l10.697-6.061	c0.145-0.083,0.24-0.251,0.24-0.424V5.932c0-0.181-0.094-0.342-0.243-0.432L4.253,2.446c-0.145-0.086-0.338-0.086-0.483,0	L1.082,5.499c-0.152,0.086-0.249,0.255-0.249,0.428v10.114c0,0.173,0.094,0.338,0.244,0.42l2.299,1.483	c2.334,1.167,3.76-0.208,3.76-1.591V7.476c0-0.255,0.2-0.452,0.456-0.452h0.988c0.248,0,0.452,0.196,0.452,0.452v9.886	c0,3.112-1.697,4.9-4.648,4.9c-0.908,0-1.623,0-3.619-0.982l-2.118-1.373C0.629,17.317,0,16.216,0,15.042V5.928	c0-1.179,0.629-2.279,1.646-2.861L11.36,0.002c0.994-0.562,2.314-0.562,3.301,0l10.694,6.069C24.367,7.656,25,8.753,25,9.932	v10.114c0,1.175-0.633,2.271-1.646,2.861L5.66,18.971c-0.503,0.291-1.073,0.44-1.654,0.44"/>
    <path fill="#21a366" d="M8.856,16.937c-6.868,0-8.308-3.153-8.308-5.797c0-0.251,0.203-0.452,0.455-0.452h1.028	c0.224,0,0.413,0.163,0.448,0.384c0.306,2.066,1.218,3.108,5.371,3.108c3.308,0,4.715-0.747,4.715-2.502	c0-1.01-0.401-1.76-5.54-2.263c-4.299-0.424-6.955-1.371-6.955-4.809c0-3.167,2.672-5.053,7.147-5.053	c5.026,0,7.517,1.745,7.831,5.493c0.012,0.13-0.035,0.255-0.122,0.35c-0.086,0.09-0.208,0.145-0.334,0.145h-1.039	c-0.212,0-0.397-0.149-0.44-0.354c-0.491-2.173-1.678-2.868-4.904-2.868c-3.611,0-4.031,1.257-4.031,2.2	c0,1.143,0.495,1.477,5.367,2.122c4.825,0.64,7.116,1.544,7.116,4.935c0,3.418-2.853,5.379-7.827,5.379"/>
  </symbol>
  <symbol fill="none" xmlns="http://www.w3.org/2000/svg" viewBox="0 0 29 29" id="skill-php">
    <path fill="#dcd5f2" d="M40,61.5C18.22,61.5,0.5,51.855,0.5,40S18.22,18.5,40,18.5S79.5,28.145,79.5,40S61.78,61.5,40,61.5z"/><path fill="#8b75a1" d="M40,19c21.505,0,39,9.421,39,21S61.505,61,40,61S1,51.579,1,40S18.495,19,40,19 M40,18 C17.909,18,0,27.85,0,40s17.909,22,40,22s40-9.85,40-22S62.091,18,40,18L40,18z"/><path fill="#36404d" d="M25.112 34c1.725 0 3.214.622 4.084 1.706.749.934.981 2.171.668 3.577C29.023 43.074 27.395 44 21.57 44h-4.14l1.75-10H25.112M25.112 32H17.5L14 52h2l1.056-6h4.515c5.863 0 9.053-.905 10.246-6.284C32.842 35.096 29.436 32 25.112 32L25.112 32zM61.112 34c1.725 0 3.214.622 4.084 1.706.749.934.981 2.171.668 3.577C65.023 43.074 63.395 44 57.57 44h-4.14l1.75-10H61.112M61.112 32H53.5L50 52h2l1.056-6h4.515c5.863 0 9.053-.905 10.246-6.284C68.842 35.096 65.436 32 61.112 32L61.112 32z"/><g><path fill="#36404d" d="M49.072,33.212C48.193,32.348,46.644,32,44.334,32h-5.538L40,26h-2.1L34,46h1.99l2.388-12h0.419 h5.538c2.338,0,3.094,0.4,3.335,0.637c0.343,0.338,0.424,1.226,0.217,2.363l-1.767,9h2.106l1.626-8.63 C50.199,35.462,49.936,34.062,49.072,33.212z"/></g>
  </symbol>
  <symbol fill="none" xmlns="http://www.w3.org/2000/svg" viewBox="0 0 29 29" width="29" height="29" id="skill-laravel">
     <g clip-path="url(#clip0)">
        <path d="M21.3933 40H18.6067C8.33091 40 0 31.1351 0 20.2008V19.7992C0 8.86486 8.33091 0 18.6067 0H21.3933C31.6691 0 40 8.86486 40 19.7992V20.2008C40 31.1351 31.6691 40 21.3933 40Z" fill="#F2D03B" />
        <path d="M2.55461 15.4131C2.49655 15.4131 2.4385 15.4131 2.38044 15.3822C2.06114 15.2896 1.85795 14.9189 1.94503 14.5483C3.51252 8.83399 7.60541 4.23167 12.8884 2.25484C13.2077 2.13128 13.5561 2.31661 13.6722 2.65638C13.7883 2.99615 13.6141 3.3668 13.2948 3.49036C8.38915 5.34364 4.58654 9.60619 3.13516 14.9189C3.07711 15.2278 2.81586 15.4131 2.55461 15.4131Z" fill="white" />
        <path d="M29.5794 2.00769C34.0787 5.62159 36.9814 11.3359 36.9814 17.7915V18.193C36.9814 29.1274 28.6505 37.9922 18.3748 37.9922H15.5881C12.6563 37.9922 9.86969 37.2818 7.40234 35.9845C10.5083 38.4865 14.398 39.9691 18.607 39.9691H21.3936C31.6694 39.9691 40.0003 31.1042 40.0003 20.1699V19.7683C40.0003 11.9845 35.7623 5.25093 29.5794 2.00769Z" fill="#E8B938" />
        <path d="M14.8911 18.1003C14.3686 18.1003 13.9622 17.6679 13.9622 17.1119V16.5251C13.9622 15.5366 13.2075 14.7027 12.2495 14.7027C11.2626 14.7027 10.4789 15.5058 10.4789 16.5251V17.1119C10.4789 17.6679 10.0725 18.1003 9.54998 18.1003C9.02748 18.1003 8.62109 17.6679 8.62109 17.1119V16.5251C8.62109 14.4247 10.2176 12.7258 12.1915 12.7258C14.2234 12.7258 15.8199 14.4247 15.8199 16.5251V17.1119C15.8199 17.637 15.4135 18.1003 14.8911 18.1003Z" fill="#3D3813" />
        <path d="M30.4789 18.1003C29.9564 18.1003 29.5501 17.6679 29.5501 17.1119V16.5251C29.5501 15.5366 28.7953 14.7027 27.8374 14.7027C26.8505 14.7027 26.0667 15.5058 26.0667 16.5251V17.1119C26.0667 17.6679 25.6604 18.1003 25.1379 18.1003C24.6154 18.1003 24.209 17.6679 24.209 17.1119V16.5251C24.209 14.4247 25.8055 12.7258 27.7794 12.7258C29.8113 12.7258 31.4078 14.4247 31.4078 16.5251V17.1119C31.4078 17.637 31.0014 18.1003 30.4789 18.1003Z" fill="#3D3813" />
        <path d="M20.0288 32.2162C11.6979 32.2162 9.05635 26.4402 8.94024 26.1931C8.70802 25.6989 8.91121 25.112 9.37565 24.8649C9.84009 24.6178 10.3916 24.834 10.6238 25.3282C10.7109 25.5444 12.946 30.2085 20.0288 30.2085C27.1986 30.2085 29.4047 25.3591 29.4337 25.3282C29.6659 24.834 30.2175 24.6178 30.6819 24.8649C31.1463 25.112 31.3495 25.6989 31.1173 26.1931C31.0012 26.4402 28.3597 32.2162 20.0288 32.2162Z" fill="#3D3813" />
      </g>
  </symbol>
  <symbol fill="none" xmlns="http://www.w3.org/2000/svg" viewBox="0 0 29 29" id="skill-angular">
    <linearGradient id="QzbsZZGqvt5vTzXzFrTWxa" x1="19.369" x2="32.915" y1="6.256" y2="43.472" gradientUnits="userSpaceOnUse"><stop offset="0" stop-color="#dfe9f2"/><stop offset=".391" stop-color="#d6e0e9"/><stop offset="1" stop-color="#bfc8d1"/></linearGradient><path fill="url(#QzbsZZGqvt5vTzXzFrTWxa)" d="M22.959,2.339L5.285,8.49c-1.333,0.464-2.163,1.795-1.992,3.197l2.828,23.187	c0.117,0.963,0.693,1.809,1.545,2.273l14.85,8.072c0.897,0.487,1.98,0.485,2.875-0.005l14.952-8.195	c0.847-0.464,1.419-1.309,1.536-2.268l2.826-23.174c0.172-1.41-0.668-2.747-2.013-3.204L24.91,2.332	C24.277,2.117,23.59,2.119,22.959,2.339z"/><linearGradient id="QzbsZZGqvt5vTzXzFrTWxb" x1="24" x2="24" y1="2.152" y2="39.957" gradientUnits="userSpaceOnUse"><stop offset="0" stop-color="#f44f5a"/><stop offset=".443" stop-color="#ee3d4a"/><stop offset="1" stop-color="#e52030"/></linearGradient><path fill="url(#QzbsZZGqvt5vTzXzFrTWxb)" d="M42.62,12.14L39.96,34	c-0.08,0.64-0.46,1.2-1.03,1.51L24.94,43c-0.3,0.16-0.62,0.23-0.94,0.23c-0.05,0-0.09-0.01-0.14-0.01c-0.27-0.01-0.54-0.08-0.8-0.22	L9.07,35.64c-0.56-0.31-0.95-0.88-1.03-1.52L5.38,12.24c-0.12-0.93,0.44-1.82,1.32-2.13l16.62-5.87c0.18-0.06,0.36-0.1,0.54-0.1	c0.05-0.01,0.09-0.01,0.14-0.01c0.22,0,0.44,0.04,0.66,0.11c1.58,0.57,6.2,2.23,16.62,5.76C42.17,10.31,42.74,11.2,42.62,12.14z"/><path fill="#fff" d="M11.013,34h4.409L24,15.504V5.996L11.013,34z"/><path fill="#fff" d="M18,24h6v4h-6V24z"/><path fill="#b31523" d="M42.62,12.14L39.96,34c-0.08,0.64-0.46,1.2-1.03,1.51L24.94,43c-0.3,0.16-0.62,0.23-0.94,0.23V4.13	c0.22,0,0.44,0.04,0.66,0.11c1.58,0.57,6.2,2.23,16.62,5.76C42.17,10.31,42.74,11.2,42.62,12.14z"/><path fill="#bfc8d1" d="M24,6v9.508l8.578,18.496h4.409L24,6z"/><path fill="#bfc8d1" d="M24,24.004h6v4h-6V24.004z"/><path d="M24,5.996V6l12.987,28.004h-4.409l-2.783-6H24V28h-5.795l-2.783,6h-4.409L24,5.996 M20.06,24H24v0.004h3.94L24,15.508 v-0.004L20.06,24 M25,1.467l-1.907,4.108L10.106,33.579L9.447,35h1.566h4.409h0.639l0.269-0.579L18.843,29H23l1,0.004h5.157 l2.514,5.421l0.269,0.579h0.639h4.409h1.566l-0.659-1.421L25,5.779V1.467L25,1.467z M21.626,23l2.373-5.117l2.375,5.121H25L24,23 H21.626L21.626,23z" opacity=".05"/><path d="M24,5.996V6l12.987,28.004h-4.409l-2.783-6H24V28h-5.795l-2.783,6h-4.409L24,5.996 M20.06,24H24v0.004h3.94L24,15.508 v-0.004L20.06,24 M24.5,3.733l-0.954,2.052L10.559,33.79L10.23,34.5h0.783h4.409h0.319l0.134-0.29l2.648-5.71H23.5l0.5,0.004 h5.476l2.648,5.71l0.134,0.29h0.319h4.409h0.783l-0.329-0.71L24.5,5.89V3.733L24.5,3.733z M20.843,23.5l3.156-6.806l3.158,6.81 H24.5L24,23.5H20.843L20.843,23.5z" opacity=".07"/>
  </symbol>
  <symbol fill="none" xmlns="http://www.w3.org/2000/svg" viewBox="0 0 29 29" id="skill-codeigniter">
   <path d="M13.104 287.306c-5.204 0-6.717-3.03-6.717-7.57 0-1.513.19-3.22.424-5.018 1.14-7.851 3.923-12.343 10.64-12.343 4.543 0 6.758 2.032 6.758 5.722v1.799h4.507c.05 0 .05-1.656.05-2.033 0-5.392-3.265-10.506-11.308-10.506-10.929 0-15.423 5.937-17.079 17.576-.237 1.562-.379 3.02-.379 4.576 0 6.86 2.699 13.1 12.349 13.1 7.332 0 11.687-3.575 14.24-7.975l-4.306-2.9c-2.79 4.401-5.82 5.572-9.179 5.572zm29.57-21.668c-8.754 0-12.536 4.492-13.813 13.432a23.325 23.325 0 0 0-.24 3.124c0 5.77 2.697 10.362 10.17 10.362 8.754 0 12.587-4.685 13.864-13.486.142-1.134.237-2.175.237-3.215.002-5.865-2.788-10.217-10.218-10.217zm3.643 13.435c-.947 6.483-2.979 8.47-6.814 8.47-3.073 0-4.586-1.278-4.586-5.11 0-.947.096-2.081.284-3.36.947-6.433 2.839-8.42 6.718-8.42 3.123 0 4.682 1.277 4.682 5.156 0 .946-.096 2.035-.284 3.264zm28.58-21.246l-1.465 8.685c-.094.755-.046.504.24 1.214-1.372-1.04-3.834-1.728-5.49-1.728-7.854 0-12.252 3.555-13.67 13.49a19.414 19.414 0 0 0-.237 3.171c0 7.241 4.257 9.94 9.98 9.94 2.416 0 4.78.05 6.623-1.509l.471 2.943h4.543l5.298-36.206h-6.293zm-4.494 28.342c-2.127 1.274-4.207 1.562-5.484 1.562-3.454 0-4.4-1.799-4.4-4.683 0-1.089.142-2.363.333-3.739 1.086-7.521 3.5-8.848 6.623-8.848 2.032 0 3.592.333 5.062 1.139l-2.134 14.569zm24.603-20.531c-8.66 0-12.725 4.113-14.099 13.432-.144 1.137-.239 2.226-.239 3.266 0 6.387 3.266 10.22 10.454 10.22 5.583 0 9.75-2.32 11.972-6.578l-4.779-1.94c-1.37 2.08-3.215 3.5-6.48 3.5-3.5 0-4.92-.942-4.92-4.065 0-.616.048-1.511.143-1.511h17.076c.24-2.414.52-4.12.52-5.535 0-4.728-1.796-10.79-9.648-10.79zm3.263 11.499H87.861c1.043-2.414 2.79-6.15 6.387-6.15 2.79 0 4.164 1.631 4.164 4.422-.003.473-.046 1.728-.143 1.728zm24.591-12.069l.567-4.827h-13.343l-.565 4.827h3.5l-3.782 24.137h-3.505l-.564 4.828h13.34l.57-4.828h-3.503l3.783-24.137h3.502zm27.11 7.241l1.705-4.827h-4.589l-3.309.683c-1.846-1.18-4.354-2.066-6.717-2.066-6.768 0-12.537 3.268-12.537 10.697 0 2.084.756 3.766 1.653 4.903-1.416.755-2.647 2.02-2.647 3.726 0 .756.282 1.53.852 2.238-2.841 1.706-4.586 4.533-4.586 7.842 0 6.39 6.669 7.753 11.778 7.753 6.433 0 14.099-1.47 14.099-9.655 0-2.79-1.75-4.97-6.812-5.916l-9.13-1.706c-1.04-.191-1.277-.522-1.277-.995 0-.71.43-1.086 1.136-1.086l.616.094c1.23.283 2.65.427 4.115.427 6.578 0 12.443-2.84 12.443-10.22 0-1.042-.188-1.747-.661-2.884.803.38 1.846.995 2.268.995h1.6v-.003zm-13.007 19.583c1.796.333 2.41.994 2.41 2.177 0 3.833-4.116 4.306-7.095 4.306-4.542 0-6.244-1.086-6.244-3.502 0-2.13.613-3.121 2.035-4.637l8.894 1.656zM135.02 279.5c-2.744 0-4.258-.992-4.258-3.36 0-3.5 2.035-5.535 5.583-5.535 2.839 0 4.212 1.183 4.212 3.498 0 3.502-1.989 5.397-5.537 5.397zm31.757-13.862c-2.65 0-5.013 1.3-7.948 3.616l-.425-1.772h-5.206l-3.642 26.55h6.292l2.745-20.134c1.846-1.135 4.115-2.783 6.055-2.783 2.364 0 3.218 1.141 3.218 3.316 0 .521-.05 2.064-.145 2.631l-2.315 16.97h6.293l2.315-17.108c.096-.8.19-2.119.19-2.874.003-4.5-2.129-8.412-7.427-8.412zm19.38 21.743l.048-.65 2.742-19.249h-10.456l-.659 4.827h4.586c-.379 0-.615.423-.661.804l-1.893 12.82c-.094.617-.14 1.901-.14 2.418 0 3.311 1.796 5.682 5.484 5.682h3.218l.71-4.828h-2.033c-.712 0-.946-1.257-.946-1.824zm4.067-29.554h-6.15c-.379 0-.379-1.393-.425-.92l-.854 6.802c-.049.428-.049 1.36.33 1.36h6.153c.379 0 .379-1.654.425-2.084l.854-5.25c.048-.473.048.092-.333.092zm12.831 29.715c-1.559 0-2.317-.663-2.317-2.08l.048-.097 1.987-13.056h7.19l2.175-4.827h-8.704l1.465-10.623-6.62 2.117-1.185 8.506h-3.831l-.661 4.827h4.446c-.425 2.414-.852.848-.898 1.323l-1.704 11.448c-.094.522-.094.9-.094 1.371 0 4.495 3.311 6.177 7.289 6.177 3.688 0 6.669-1.077 8.989-3.02l-2.935-3.61c-1.47.897-2.462 1.544-4.64 1.544zm23.087-21.904c-8.657 0-12.725 4.113-14.098 13.432-.142 1.137-.237 2.226-.237 3.266 0 6.387 3.264 10.22 10.454 10.22 5.583 0 9.75-2.32 11.97-6.578l-4.777-1.94c-1.37 2.08-3.217 3.5-6.483 3.5-3.498 0-4.92-.942-4.92-4.065 0-.616.051-1.511.146-1.511h17.077c.236-2.414.52-4.12.52-5.535 0-4.728-1.797-10.79-9.652-10.79zm3.266 11.499H219c1.04-2.414 2.788-6.15 6.387-6.15 2.79 0 4.164 1.631 4.164 4.422-.003.473-.049 1.728-.143 1.728zm23.797-11.5c-2.271 0-4.4 1.302-6.53 3.332l-.378-1.487h-5.202l-3.644 26.55h6.34l2.79-20.56c1.657-.991 3.549-1.838 5.347-1.838 1.137 0 2.223-.181 3.263-.04l.809-5.485c-.951-.189-1.897-.471-2.795-.471zM92.54 238.81c-14.32-6.19-27.72-21.922-27.752-38.019-.039-17.55 11.083-32.45 24.916-42.242-1.663 6.283-2.57 12.03 1.55 17.65 3.83 5.225 10.538 7.764 16.872 6.386 14.8-3.24 15.479-19.51 6.705-28.989-8.675-9.387-17.067-19.99-13.765-33.603 1.653-6.824 5.843-13.216 11.151-17.785-4.08 10.722 7.514 21.296 15.153 26.563 13.251 9.138 27.79 16.044 39.974 26.756 12.816 11.258 22.28 26.48 20.369 44.135-2.071 19.136-17.277 32.445-34.333 39.164 36.042-7.955 73.283-35.928 74.046-75.9.632-32.885-21.927-58.193-49.872-72.682l-1.46-.797c.767 1.861 1.018 3.444.989 4.861.25-1.045.42-2.119.468-3.227a15.728 15.728 0 0 1-.512 3.9l.044-.673a16.383 16.383 0 0 1-2.069 4.931l.41-.441c-5.575 9.247-20.668 11.255-28.124 1.68-11.986-15.402.251-32.008 1.963-48.318 2.143-20.441-10.676-40.285-26.57-52.16 8.754 14.161-2.779 32.896-12.006 43.37C101.74 53.523 90.859 62 80.982 71.225c-10.61 9.908-20.81 20.345-29.531 31.974-17.442 23.276-28.12 52.55-20.273 81.588 7.842 29.018 32.978 47.49 61.363 54.022z" fill="#EE4323"/>
  </symbol>
</svg>